<svg width="1420" height="1800" viewBox="0 0 1420 1800" fill="none" xmlns="http://www.w3.org/2000/svg">
<mask id="path-1-outside-1_1_3" maskUnits="userSpaceOnUse" x="-0.959106" y="0.00012207" width="1421" height="1800" fill="black">
<rect fill="white" x="-0.959106" y="0.00012207" width="1421" height="1800"/>
<path d="M200.002 1600L560.002 200H860.002L1220 1600H970.002L882.002 1250H538.002L450.002 1600H200.002ZM570.002 1090H848.002L714.002 520H706.002L570.002 1090Z"/>
</mask>
<path d="M200.002 1600L560.002 200H860.002L1220 1600H970.002L882.002 1250H538.002L450.002 1600H200.002ZM570.002 1090H848.002L714.002 520H706.002L570.002 1090Z" fill="white"/>
<path d="M200.002 1600L6.30322 1550.19C-9.09314 1610.07 4.06586 1673.7 41.9486 1722.55C79.8314 1771.41 138.179 1800 200.002 1800V1600ZM560.002 200V0C468.728 0 389.034 61.7942 366.303 150.192L560.002 200ZM860.002 200L1053.7 150.192C1030.97 61.7942 951.275 0 860.002 0V200ZM1220 1600V1800C1281.82 1800 1340.17 1771.41 1378.06 1722.55C1415.94 1673.7 1429.1 1610.07 1413.7 1550.19L1220 1600ZM970.002 1600L776.039 1648.77C798.392 1737.67 878.329 1800 970.002 1800V1600ZM882.002 1250L1075.96 1201.23C1053.61 1112.33 973.675 1050 882.002 1050V1250ZM538.002 1250V1050C446.329 1050 366.392 1112.33 344.039 1201.23L538.002 1250ZM450.002 1600V1800C541.675 1800 621.611 1737.67 643.965 1648.77L450.002 1600ZM570.002 1090L375.463 1043.58C361.257 1103.12 375.097 1165.89 413.025 1213.93C450.953 1261.97 508.792 1290 570.002 1290V1090ZM848.002 1090V1290C909.095 1290 966.837 1262.08 1004.77 1214.19C1042.71 1166.3 1056.68 1103.7 1042.69 1044.23L848.002 1090ZM714.002 520L908.694 474.23C887.451 383.869 806.827 320 714.002 320V520ZM706.002 520V320C613.425 320 532.948 383.535 511.463 473.584L706.002 520ZM200.002 1600L393.7 1649.81L753.7 249.808L560.002 200L366.303 150.192L6.30322 1550.19L200.002 1600ZM560.002 200V400H860.002V200V0H560.002V200ZM860.002 200L666.303 249.808L1026.3 1649.81L1220 1600L1413.7 1550.19L1053.7 150.192L860.002 200ZM1220 1600V1400H970.002V1600V1800H1220V1600ZM970.002 1600L1163.96 1551.23L1075.96 1201.23L882.002 1250L688.039 1298.77L776.039 1648.77L970.002 1600ZM882.002 1250V1050H538.002V1250V1450H882.002V1250ZM538.002 1250L344.039 1201.23L256.039 1551.23L450.002 1600L643.965 1648.77L731.965 1298.77L538.002 1250ZM450.002 1600V1400H200.002V1600V1800H450.002V1600ZM570.002 1090V1290H848.002V1090V890H570.002V1090ZM848.002 1090L1042.69 1044.23L908.694 474.23L714.002 520L519.309 565.77L653.309 1135.77L848.002 1090ZM714.002 520V320H706.002V520V720H714.002V520ZM706.002 520L511.463 473.584L375.463 1043.58L570.002 1090L764.541 1136.42L900.541 566.416L706.002 520Z" fill="black" mask="url(#path-1-outside-1_1_3)"/>
</svg>
