<svg width="67" height="86" viewBox="0 0 67 86" fill="none" xmlns="http://www.w3.org/2000/svg">
<g>
<path d="M4 77.7109L41.1875 0H52.4531C53.3281 3.71875 54.1849 7.80208 55.0234 12.25C55.8984 16.6979 56.7005 21.4557 57.4297 26.5234C58.1953 31.5911 58.9062 36.9141 59.5625 42.4922C60.2188 48.0339 60.8203 53.7578 61.3672 59.6641C61.9505 65.5703 62.4792 71.5859 62.9531 77.7109H55.2422C54.8411 72.0234 54.4036 66.4453 53.9297 60.9766C53.4557 55.4714 52.9271 50.1484 52.3438 45.0078C51.7969 39.8672 51.1953 34.9635 50.5391 30.2969C49.9193 25.6302 49.263 21.2917 48.5703 17.2812C47.9141 13.2344 47.2214 9.58854 46.4922 6.34375H45.5078L12.0391 77.7109H4ZM17.6719 56.9844L19.0391 50.2031H58.4141L57.0469 56.9844H17.6719Z" fill="#EAAE52"/>
</g>
</svg>
